 <!DOCTYPE svg PUBLIC "-//W3C//DTD SVG 1.1//EN" "http://www.w3.org/Graphics/SVG/1.1/DTD/svg11.dtd">
<svg id="a117a90a-4ffc-4cf5-9bc5-1498b64e4ce9" data-name="Layer 1" xmlns="http://www.w3.org/2000/svg" width="865.76" height="682.89" viewBox="0 0 865.76 682.89">
<defs>
<style xmlns="http://www.w3.org/1999/xhtml">*, ::after, ::before { box-sizing: border-box; }
img, svg { vertical-align: middle; }
</style>
<style xmlns="http://www.w3.org/1999/xhtml">*, body, html { -webkit-font-smoothing: antialiased; }
img, svg { max-width: 100%; }
</style>
</defs>
<circle cx="426.66" cy="301.59" r="284.77" fill="#f58428"/>
<path d="M328.74,37.29S238.51,67.42,210,89.07s-6.64,13.19,4.75,6.59,10.45,4.71,1,12.25,34.19-14.13,15.2,0S183.42,145.57,172,165.34s19.95-20.71,49.39-36.72S345.83,68.36,357.23,68.36s-6.65-8.47-10.45-8.47,21.85-11.3,38.94-11.3,78.83-1,64.59-6.59-2.85-9.42,20.89-6.6,67.43,10.36,50.34,5.65S455.05,14.69,328.74,37.29Z" fill="#f58428"/>
<path d="M239,168.18S188.3,258.31,183.5,298.69,171.13,338,171.64,317.24s-16.48-63.5-11.37-1.22,8.47,80.27,10.62,70,15.4,30.51,19.68,49.45-7,14.9-8.78,9.21-5.37,25.3-6.48,31.86-13.76-20.11-13.69-22.93-5.4,26.24-13.71,16.62-15.88-88-19.23-106-4.36,22.5-10.66,8.22-5.83-33.11,7.77-83.64,17.42-51.38,21.38-57.87-1.13,7.51,6.39,10.51,19-39.09,34.59-53.78,5.79-3.63,6.57,3,15.57-14.69,34-30.25,59.85-38.11,55.86-30.67S250.93,145.87,239,168.18Z" fill="#f58428"/>
<path d="M225.64,525s70.25,54.55,102.05,65.51,13.85-1.64,2.78-7.09-1.65-10.55,9.2-7.06-28.77-19.27-7.82-11.81S386.09,582,407.6,580.64s-26.65-4.81-54.47-19.42-111.69-65.57-117.55-74.43-3.29,9.55-1.34,12.5-20.18-11.14-29-24.43S164,414.09,166.84,428.08s-6,7.07-16-12.83-26.48-57.75-21.41-42S142.78,438.49,225.64,525Z" fill="#f58428"/>
<path d="M403.58,583.53s97.61,3.72,133.73-9.46S575.69,567.64,558,576s-46.59,40.66,3.81,10,64.13-41.14,54.52-38.55,19.21-25.74,33.37-37.34,15.56-.51,11.5,3.37,23.64-6.3,29.65-8.17-11.13,20-13.54,21.1,24.44-6.67,19.85,4.31-67.5,50.56-81.24,61,20.84-5.95,11.46,5.34-25.46,18.91-73.88,29.11-50.77,7.39-57.93,6.87,6.82-2.25,6.16-9.77-41.08.84-60.1-5.82-5.52-3.26-.27-6.73-19-6.66-40-15.34S343.78,561.9,351.75,562,379.67,583.1,403.58,583.53Z" fill="#f58428"/>
<path d="M739.13,371.23s16.46-87.06,11.63-120.12-7.85-11.44-7.63.84-8.67,6.32-10.54-4.84-4,34.23-7,12.33-9.35-55.81-20.46-74.12,8,25.68,7.7,56.92-7.23,128.63-12.45,137.88,10-1.51,11.78-4.6-.67,22.92-8.51,36.79-35.34,64.44-24.15,55.46,9.09,2-4.13,20-39.46,50-27.73,38.28S699.91,484.14,739.13,371.23Z" fill="#f58428"/>
<path d="M696,229.73s-52.77-81.49-84.35-103.31-27.28-27.53-10.23-17.94,60.3,14.61,6.05-8.79-70.73-28.6-63.08-22.27-32.28-.88-50-5.76-9.32-12.36-3.79-11.28S471.85,44.77,466.87,41s22.87-2.37,25.2-1.07-19.51-16.05-7.8-18.6,80.46,25.94,96.94,31.15-16.84-13.54-2.14-12.38,30.22,9.88,66.36,43.41,35.17,37.05,38.83,43.17-5.76-4.25-11.6.59,24.2,32.91,29.57,52.18.46,6.36-5.41,4.08,5.37,19.27,10.2,41.28,5.29,66,.85,59.4S709.3,249.42,696,229.73Z" fill="#f58428"/>
<g opacity="0.87" style="isolation:isolate">
<circle cx="426.66" cy="301.59" r="284.77" fill="#fff"/>
<path d="M328.74,37.29S238.51,67.42,210,89.07s-6.64,13.19,4.75,6.59,10.45,4.71,1,12.25,34.19-14.13,15.2,0S183.42,145.57,172,165.34s19.95-20.71,49.39-36.72S345.83,68.36,357.23,68.36s-6.65-8.47-10.45-8.47,21.85-11.3,38.94-11.3,78.83-1,64.59-6.59-2.85-9.42,20.89-6.6,67.43,10.36,50.34,5.65S455.05,14.69,328.74,37.29Z" fill="#fff"/>
<path d="M239,168.18S188.3,258.31,183.5,298.69,171.13,338,171.64,317.24s-16.48-63.5-11.37-1.22,8.47,80.27,10.62,70,15.4,30.51,19.68,49.45-7,14.9-8.78,9.21-5.37,25.3-6.48,31.86-13.76-20.11-13.69-22.93-5.4,26.24-13.71,16.62-15.88-88-19.23-106-4.36,22.5-10.66,8.22-5.83-33.11,7.77-83.64,17.42-51.38,21.38-57.87-1.13,7.51,6.39,10.51,19-39.09,34.59-53.78,5.79-3.63,6.57,3,15.57-14.69,34-30.25,59.85-38.11,55.86-30.67S250.93,145.87,239,168.18Z" fill="#fff"/>
<path d="M225.64,525s70.25,54.55,102.05,65.51,13.85-1.64,2.78-7.09-1.65-10.55,9.2-7.06-28.77-19.27-7.82-11.81S386.09,582,407.6,580.64s-26.65-4.81-54.47-19.42-111.69-65.57-117.55-74.43-3.29,9.55-1.34,12.5-20.18-11.14-29-24.43S164,414.09,166.84,428.08s-6,7.07-16-12.83-26.48-57.75-21.41-42S142.78,438.49,225.64,525Z" fill="#fff"/>
<path d="M403.58,583.53s97.61,3.72,133.73-9.46S575.69,567.64,558,576s-46.59,40.66,3.81,10,64.13-41.14,54.52-38.55,19.21-25.74,33.37-37.34,15.56-.51,11.5,3.37,23.64-6.3,29.65-8.17-11.13,20-13.54,21.1,24.44-6.67,19.85,4.31-67.5,50.56-81.24,61,20.84-5.95,11.46,5.34-25.46,18.91-73.88,29.11-50.77,7.39-57.93,6.87,6.82-2.25,6.16-9.77-41.08.84-60.1-5.82-5.52-3.26-.27-6.73-19-6.66-40-15.34S343.78,561.9,351.75,562,379.67,583.1,403.58,583.53Z" fill="#fff"/>
<path d="M739.13,371.23s16.46-87.06,11.63-120.12-7.85-11.44-7.63.84-8.67,6.32-10.54-4.84-4,34.23-7,12.33-9.35-55.81-20.46-74.12,8,25.68,7.7,56.92-7.23,128.63-12.45,137.88,10-1.51,11.78-4.6-.67,22.92-8.51,36.79-35.34,64.44-24.15,55.46,9.09,2-4.13,20-39.46,50-27.73,38.28S699.91,484.14,739.13,371.23Z" fill="#fff"/>
<path d="M696,229.73s-52.77-81.49-84.35-103.31-27.28-27.53-10.23-17.94,60.3,14.61,6.05-8.79-70.73-28.6-63.08-22.27-32.28-.88-50-5.76-9.32-12.36-3.79-11.28S471.85,44.77,466.87,41s22.87-2.37,25.2-1.07-19.51-16.05-7.8-18.6,80.46,25.94,96.94,31.15-16.84-13.54-2.14-12.38,30.22,9.88,66.36,43.41,35.17,37.05,38.83,43.17-5.76-4.25-11.6.59,24.2,32.91,29.57,52.18.46,6.36-5.41,4.08,5.37,19.27,10.2,41.28,5.29,66,.85,59.4S709.3,249.42,696,229.73Z" fill="#fff"/>
</g>
<path d="M515.42,655.43a5.93,5.93,0,0,1-2.33-.76c-1.16-.68-2.22-1.86.33-3.31l15.08-11.61,12.66-4.45,15-8.51s3.18,1.9,2.51,7.56a5.22,5.22,0,0,1-2.71,4c-3.25,1.77-9.41,5.4-12.27,8.85a18,18,0,0,1-4.81,4.24C534.65,653.86,526.86,656.87,515.42,655.43Z" fill="#12ae4b"/>
<path d="M656.08,604.82s-3.11,29.08-2,30.87c0,0,2.45,2.9,8.93-4.69,0,0,10.06-7.38,8.94-22.35,0,0-1.17-6,.09-10.72,0,0,8.28-10.18-5.76-14.26Z" fill="#12ae4b"/>
<path d="M668.85,578.88c-3.8,10.83-16,13.52-22.46,14.18A40.52,40.52,0,0,0,634.62,596c-14.06,6-27.53,16.77-27.53,16.77-16.71,11.13-39,10.79-39,10.79-28.53,3.4-42.3-2.64-47.38-5.85a2.52,2.52,0,0,1-.62-3.63,28.35,28.35,0,0,0,3.64-8.61c.71-2.45,1.34-5.23,1.9-8.25,5.21-27.78,5.21-75.68,5.21-75.68l87-68.32,5.27,2.19,6.57,38.28a156.86,156.86,0,0,0,29.53,69.18c2.58,3.44,4.89,6.19,6.68,8.21.58.67,1.12,1.26,1.59,1.76A6,6,0,0,1,668.85,578.88Z" fill="#e1b425"/>
<path d="M665.93,571.08c-3,3-10.45,8.72-27.56,13.07-1.2.3-2.4.64-3.58,1-5.43,1.79-21.35,7.31-32.56,13.79a60.44,60.44,0,0,0-5.06,3.33c-5.68,4.1-31,19.49-73.44,3.17.71-2.45,1.34-5.23,1.9-8.25,9.12,2.23,50.89,11.14,73.45-7.08,0,0,6.92-7,22.73-12.47,1.25-.43,2.52-.81,3.8-1.15,5.41-1.4,24.15-6.6,33.64-13.65C661.83,566.31,664.14,569.06,665.93,571.08Z" fill="#fff" opacity="0.4"/>
<path d="M530.28,546.63s8.57,1,12.4-3.85c0,0,6.26-4.87,10.09,0,0,0,3.48,6.27-2.09,12.54a4.47,4.47,0,0,0,.32,5.37,11.87,11.87,0,0,1,2.5,11.06,10,10,0,0,1-3.16,4.81s-5.48,4.57-14-1.75a15.87,15.87,0,0,0-3.56-2.34c-1.46-.55-3.15-.78-4.09.54C528.7,573,530,554.66,530.28,546.63Z" fill="#e33994"/>
<path d="M608.64,517.09s-10.85-7.23-3.83-11.7a13.46,13.46,0,0,0,7.25-5.83,18.45,18.45,0,0,1,10.8-9,4.8,4.8,0,0,1,5.79,5.61c-.38,2.1-1.57,4.73-4.54,7.53,0,0-3.55,4,0,7.83,0,0,5.9,4.47,4.69,7.88,0,0-.32,1.6-7.59,5.17a18.94,18.94,0,0,1-1.81.72c-.65.24-1.62,1-1.18,3.47,0,0-3.83,16.82-11.28,14.26,0,0-4-3,.43-9.36C607.37,533.7,615.67,521.14,608.64,517.09Z" fill="#ef3648"/>
<path d="M538.39,623.6a12.89,12.89,0,0,1-4.28,10.75c-5.1,4.29-11.64,11.23-5.41,10.21,0,0,21.13-5.72,27.46-17.77l-.81-2.27S541.74,624.19,538.39,623.6Z" fill="#f9b499"/>
<path d="M651.55,592.21s4.77,8.4,4.77,15.55c0,0-.89,12.73,2.91,10,0,0,4.49-.32,5.58-17l1.48-17.16S661.5,590,651.55,592.21Z" fill="#f9b499"/>
<path d="M608,354l3.82,13.82-61.41-29.09-13.19-9.56-3.85-2.78c0-6.46,11.17-21.1,11.17-21.1a17.47,17.47,0,0,0,3.74,1.18c8.32,1.83,24.47,2.59,24.47,2.59L598,307.6c15-2.06,20.56,4.11,20.56,4.11,10.78,7,14.14,22.8,15.15,30.28.34,2.52.42,4.1.42,4.1C627.64,352,608,354,608,354Z" fill="#e1b425"/>
<path d="M634.1,346.09C627.64,352,608,354,608,354l-1.76-4.4s18.23-2.53,27.49-7.62C634,344.51,634.1,346.09,634.1,346.09Z" fill="#fff" opacity="0.4"/>
<path d="M624.1,453.91c-29.67,47.89-90.49,69.93-90.49,69.93-9.39,3.82-9.39-1.47-9.39-1.47a137.46,137.46,0,0,1,.39-24.53c.44-4.85,1.07-9.78,1.82-14.67.65-4.33,1.41-8.64,2.22-12.82,1.15-6.06,2.41-11.86,3.65-17.12,1.08-4.65,2.15-8.9,3.11-12.54,2.17-8.28,3.78-13.51,3.78-13.51,8.82-17.34,7.35-53.47,7.35-53.47-3.84-37.36,7.89-60.68,11-66.07a2.39,2.39,0,0,1,2.07-1.2h6.84a2.5,2.5,0,0,1,2.51,2.32c3,42.84,41.88,55.64,41.88,55.64a130,130,0,0,1,4.91,21.38,64.49,64.49,0,0,1,.74,12.61c.3,9.69,4.4,34.08,4.4,34.08,1.2,1.9,2,5,2.43,8.22A91.43,91.43,0,0,1,624.1,453.91Z" fill="#12ae4b"/>
<path d="M615.73,385.78c-50.09-8.39-52-78.29-52-79.34h2.71a2.5,2.5,0,0,1,2.51,2.32c3,42.84,41.88,55.64,41.88,55.64A130,130,0,0,1,615.73,385.78Z" opacity="0.2"/>
<ellipse cx="556.26" cy="385.96" rx="19.71" ry="4.39" fill="#e6e7e8"/>
<path d="M561.55,385.12h-11.5s-4.55.1-6.08-2.58h0a5,5,0,0,1-.06-4.22s4.29-7.36,5.31-11.85c0,0,.81-8.37,5.31-7.35a3.45,3.45,0,0,1,3.16.93c1.23,1,2.64,2.93,3.86,6.62a46.12,46.12,0,0,0,4.61,10S573,385.13,561.55,385.12Z" fill="#f58428"/>
<path d="M561.55,385.12h-11.5s-4.55.1-6.08-2.58h0c13.49,1.18,17.16-2.73,17.92-6.1a6.6,6.6,0,0,0-1.21-5.3c-2.09-2.79-2.77-8.19-3-11.09,1.23,1,2.64,2.93,3.86,6.62a46.12,46.12,0,0,0,4.61,10S573,385.13,561.55,385.12Z" opacity="0.2"/>
<path d="M624.11,453.91c-29.68,47.89-90.5,69.93-90.5,69.93-9.39,3.82-9.39-1.47-9.39-1.47a137.57,137.57,0,0,1,.39-24.54c15.86-4.53,72.72-22.74,98.7-57.15A93.27,93.27,0,0,1,624.11,453.91Z" opacity="0.2"/>
<path d="M561.55,324.75S571.09,372.58,598,387C598,387,553.25,384.1,561.55,324.75Z" fill="#fff" opacity="0.2"/>
<path d="M581.1,418.76s-1,22.58-48.8,34.46c1.09-4.65,2.15-8.89,3.12-12.54C535.42,440.68,570.9,433.89,581.1,418.76Z" fill="#fff" opacity="0.2"/>
<path d="M606.05,421.28C603.8,425,575,471.59,526.43,483.17c.66-4.34,1.41-8.64,2.22-12.83C529.67,470.07,585.49,455.11,606.05,421.28Z" fill="#fff" opacity="0.2"/>
<path d="M566.24,473.79s-2.11-2.56,0-4.08c0,0,6.38-4.08,6.28,2,0,0-.32,3,1.45,4.13,0,0,5.22,1.59,7.65,4.07a2.73,2.73,0,0,1-1,4.5,14.86,14.86,0,0,1-6.57.32,11,11,0,0,0-7.76,1.94c-1.79,1.28-4.14,2.29-6.43,1.26a1.6,1.6,0,0,1-.88-1c-.34-1.24-.3-3.95,4.94-6.61C563.88,480.34,570.11,478,566.24,473.79Z" fill="#fcac19"/>
<path d="M553.3,415.83s-2.12-3.95,0-5.49c0,0,1.36-2.88,7.22.77l3.06,1.86a4.64,4.64,0,0,1,2.16,4.9c-.55,2.71-1.63,6.22-3.58,6.91,0,0-6.36-3.08-8.47,1.35,0,0-2.51,9.43-6.55,3.27,0,0-3.08-5.77,3.47-6.93C550.61,422.47,557.15,423.05,553.3,415.83Z" fill="#f58428"/>
<path d="M575.05,300.25l-2.36,8.82a10.33,10.33,0,0,0,10.58,5.58s5.58.59,14.69-7c0,0-2.62-2.61-1.16-11.74Z" fill="#f7a48b"/>
<path d="M326.35,639.79v2.86s50.73,23.16,55.13,7.77Z" fill="#2b1518"/>
<path d="M329.13,630.21s-3.15-3.09-2.74,3.79l0,5.79a144.6,144.6,0,0,0,38,13.21s18.65,2.72,17.56-5c0,0,.95-2.31-8-4.63,0,0-14.11-5.44-18.29-12.11,0,0-2.34-6.53-6-3.74l-9.63,1Z" fill="#f58428"/>
<path d="M201.29,610.67s-4.76-1-2,6.66c0,0,12.8,21.65,26.55,30.36,0,0,11.23,7.26,12.93,2.45Z" fill="#2b1518"/>
<path d="M201.09,615.46s-3.17-4.28,1.22-6.63c0,0,7.92-7.48,9.55-6.55l7.35,15.33,8.83-.72s3.17-2.07,3.47,2.18c0,0,.14,14.87,6,21.27,0,0,6.13,6.53,1.23,9.8,0,0-6.91,2.59-19.52-11C219.21,639.11,207.42,626.66,201.09,615.46Z" fill="#f58428"/>
<path d="M211.86,602.28s-2.3,1.34-1.17,4.61l5.3,11.23s1.23,2.14,7.56,0l4.49-1.23-1.33-6.22Z" fill="#f9b499"/>
<path d="M329.13,630.21l.85-7.27h19.65v4.54s-1.62,0-2.27,2.15a5.5,5.5,0,0,1-2.28,3.07c-2,1.31-5.64,2.33-11.07-.53Z" fill="#f9b499"/>
<path d="M257.24,524.62s-3.89,20.19-12.75,28.87L215.26,593s-6.63,6.16-2.15,11.47a7.84,7.84,0,0,0,1.66,1.43L227,614.05a4.07,4.07,0,0,0,2.34.7c2,0,5.69-.92,10.53-5.64,0,0,30.15-28.8,43.7-56.84,0,0,8.64-17.06,13.27-20.92l-4.63-9L257.92,521Z" fill="#15a69f"/>
<path d="M320.58,524.05s6.84,85.86,7.69,98.89c0,0-.42,4.94,10,3.33l9-1s4.7.37,4.49-6.22l3.84-99.5Z" fill="#15a69f"/>
<path d="M354.5,548.45a4.71,4.71,0,0,1-5.24,0s-11.85-5.3-12.8,4.09c0,0-1.43,8,9,8,0,0-4.36,8.55-2.7,13.66a3.62,3.62,0,0,0,2.73,2.38c2.16.46,5.87.52,8-3.53Z" fill="#fcac19"/>
<path d="M254.2,549s-.76-6.41,3.15-5.72a3.58,3.58,0,0,1,1.89,1.08c.55.57,1.47,1.22,2.38.65,0,0,4,1.63,0,4,0,0-1.63,3.09-.54,4.72,0,0,2,4.72-3.81,3.63,0,0-4.36-.36-6,1.82,0,0-4.54,2.35-5.08-1.28,0,0-.51-3.44,4.1-3.44C250.3,554.45,253.26,554.05,254.2,549Z" fill="#e33994"/>
<path d="M255.63,564.61s-3.58-3.21-1.43-4.69c0,0,1.07-1.48,4.34,1.06,0,0,.9-3.39,3.63-1.06,0,0,5.26-1.47,5.8,2,0,0,.1,2.9-4.57,2.72,0,0-.33,6.9-5,5.81C258.35,570.42,253.45,570.78,255.63,564.61Z" fill="#88c541"/>
<path d="M316.86,527.36l5.65-.83,1.16-75-5.45-70.92-9.46-41.52-1.56-17.28v-7.76l1.56-4.56v-7.13l-6.46,7.33-21-5.31v2a29.83,29.83,0,0,0-2,3.93l14.61,19.42L306,469l6.61,58.1Z" fill="#f58428"/>
<path d="M316.86,527.36l5.65-.83,1.16-75-5.45-70.92-9.46-41.52-1.56-17.28v-7.76l1.56-4.56v-7.13l-6.46,7.33-21-5.31v2a29.83,29.83,0,0,0-2,3.93l14.61,19.42L306,469l6.61,58.1Z" fill="#fff" opacity="0.4"/>
<path d="M308.76,302.37a8.07,8.07,0,0,1-3.5,6.17c-2.64,2.18-1.87,7.44-1.87,7.44v8.73a1.07,1.07,0,0,1-1.07,1.07h0a1.07,1.07,0,0,1-1.05-.93l-.79-6.14c-.72-11.8-19.21-12.35-19.21-12.35l-.95-11.55h0c6.55,9.5,15.49,14.55,22.77,11.88A12.44,12.44,0,0,0,308.76,302.37Z" fill="#f7a48b"/>
<path d="M279.25,310.29l-22,71.28s-4.13,127.82-7,142.11c0,0,18.37,2,25.32,5.31,0,0,20.82,5.31,31,0,0,0,6.54-3.27,10.21-1.63l-1.22-55.74s-1.84-48.19-5.93-63.91c0,0-4.69-26.34-4.49-36.55l-1.84-31.85S302.68,312.11,279.25,310.29Z" fill="#f58428"/>
<path d="M286.22,344.27s3.28,17.43-14.69,35.67c0,0-15.24,10.62-3,17.69l18.69,12v2.45l-9.71-5.17L256.8,396l.44-12.94S281.58,364.14,286.22,344.27Z" opacity="0.1"/>
<path d="M378.43,214.22a2.23,2.23,0,0,1,1.92,2.38l-2.65,34.11v0L375.27,282c-.77,17-14.83,40.81-22.17,52.17a75,75,0,0,0-7.48,15.06h0a30.17,30.17,0,0,0-1.77,11.26c2.91,82.76,5.91,86.77,5.91,86.77.71,12.93,15,67.09,15,67.09-6.08,7.05-18.07,10.88-24.8,12.57a22.52,22.52,0,0,1-8.34.42c-4.11-.57-9.14-.77-9.14-.77l-2.59-63.88c1.43-37-8.37-81.88-8.37-81.88-7.35-22.46-5.3-59.83-5.3-59.83-.27-10.58,2.51-11.44,2.51-11.44v-7.12l2.22,5,8.39-2.75c22.95-16.89,32.23-78,33.68-88.57a2.56,2.56,0,0,1,1.89-2.14C361.31,212.25,373.55,213.58,378.43,214.22Z" fill="#f58428"/>
<path d="M308.76,302.37s12.59-1.71,16.06,12.82a44.48,44.48,0,0,1,0,11.66s-.2,16.54,4.29,27.77c0,0,12.25,47.06,11.84,66.2,0,0,5.93,44.26,4.9,59.78,0,0-6.53-1.22-9.39,3.68,0,0-6.45-.48-8.52.65a.43.43,0,0,1-.64-.35c-.5-7-3.56-51.57-1.86-68.3,0,0,1.43-25-4.09-38.11,0,0-14.56-46.42-12.59-60.3v-15.5Z" fill="#c2202d"/>
<path d="M308.76,302.37s6.95-.84,4.26,6.31c0,0-4.58,10.12-4.26,14.6V302.37Z" opacity="0.2"/>
<path d="M274.8,302.34s-4.18,8.55,4.45,8c0,0,19.14-.83,23.73,25.16,0,0,.92,26.34.36,41.66a90.32,90.32,0,0,0,.64,14.33c1.19,9.46,3.17,24.6,4.6,31.79,0,0,5.69,52,3.52,66.42,0,0-2.84-.19-6-3.4a3.21,3.21,0,0,0-4.18-.32c-2.2,1.62-5.76,3.49-9.73,2.62a3,3,0,0,1-2.08-3.95,35.08,35.08,0,0,0,.2-23.26A255.93,255.93,0,0,1,288.68,396s8.08-57.13-3.72-70.21c0,0-1.15-7-16.14-10.57C268.82,315.21,260.91,311.31,274.8,302.34Z" fill="#c2202d"/>
<path d="M274.8,302.34l6-1.9.49,5.92s-.85,1.49-2,3.93C279.25,310.29,270.4,311.57,274.8,302.34Z" fill="#c2202d"/>
<path d="M361.16,213.16v-5.72S346.94,190,350.13,188a.79.79,0,0,1,.87.08,22.8,22.8,0,0,1,5.24,2.61,23.19,23.19,0,0,1,4.92,4.46,112.16,112.16,0,0,1-1-11.45c-.33-5.82-.33-11.83,1-12.56,0,0,3.56-4.13,3.62,15L366,186s-.68-16.34,3.13-15.18c0,0,3-.31,1.91,17.22l1.36-.14s-.14-17.14,1.36-17.21c0,0,1.56-1.1,2.23,2.18a10.1,10.1,0,0,1,.13,2.8l-1,12.64,1.09-.14s-.41-9.93,1.36-10.48c0,0,2.34-1.94,2.19,7.22,0,.22,0,.44,0,.68-.27,9.94-2,17.69-4.9,22.19,0,0-1.15,1-.3,6C374.55,213.76,364.41,212.91,361.16,213.16Z" fill="#f9b499"/>
<ellipse cx="587.78" cy="273.5" rx="31.81" ry="20.01" transform="translate(113.17 715.12) rotate(-67.89)" fill="#f9b499"/>
<path d="M577.09,252.94s14.74,20.83,22.54,23l2.19,9.66s-1.72,7.32-5,10.3c0,0-1.78,7.33,1.16,11.74,0,0,16.75-.88,20.57,4.11,0,0-1.47-13.81,3.23-21.45,0,0,5-21.74-4.11-38.78,0,0-10.58-22.62-34.38-11.16,0,0-25.83,3.93-21.15,27.61l3.61,16.13S565.33,266.15,577.09,252.94Z" fill="#2b1518"/>
<path d="M548.23,306.48l-11.06,22.7-3.85-2.78c0-6.46,11.17-21.1,11.17-21.1A17.47,17.47,0,0,0,548.23,306.48Z" fill="#fff" opacity="0.4"/>
<path d="M611.29,321.54s-4.08-3.26,0-4.9c0,0,7.08-4.27,10.18,1,0,0,4.22,2.21,1.1,7.1a5.3,5.3,0,0,0-.83,3.4c.26,2.63.2,6.95-3.1,6.24,0,0-3,.15-3.41-6.81a5,5,0,0,0-1.25-3.09Z" fill="#e33994"/>
<path d="M533.33,326.4s-12.1-6.75-16-20l-16.07-42.95a41,41,0,0,1-12.19-15.88s-5.72-5-3.69-8.5c0,0,1.29-1.47,5.91,6.65l.92-1.48s-7.75-10-6.09-13.29c0,0,1.84-2,4.43,2.77l3.88,9.05.92-1.66s-5.72-11.27-2.22-13.3c0,0,3.14-.92,3.88,7.94l1.11,4.06,1.66-.55s-2.95-11.5-.92-11.48c0,0,1.48-1.63,3.14,4.65,0,0,1.85,10.71,5,12.74,0,0,1.69-.93,2.14-5.73,0,0,.45-5.17,2.85-4.8,0,0,3.32.19-.74,17.73,0,0-.55,5.17,1.48,7.39l20.59,36.06s5.3,7.85,11.16,9.44C544.49,305.3,532.86,320.8,533.33,326.4Z" fill="#f9b499"/>
<path d="M511.78,258.09s-4.58,2.63-1.07,5.58c0,0,3.61,2.41,4,5.91,0,0-3.36,8.31,0,8.5,0,0,3,1.31,6.34-3.69Z" fill="#ef3648"/>
<path d="M516.8,283.8s-2.4,3.33,2.59,6.28a7.63,7.63,0,0,1,3.69,3.88s1.66,3.07,3.88,1.9c0,0,2.62-1.39-3.12-5.89C523.84,290,523.08,279.44,516.8,283.8Z" fill="#12ae4b"/>
<path d="M596.87,252.88s-11.82-9.67-1.21-12.49c0,0,9.26-.67,12.75,9.27,0,0,.54,2.68-2.82,5,0,0,2.12,7.39-3.77,6.85C601.82,261.47,594,261.73,596.87,252.88Z" fill="#e33994"/>
<path d="M266.58,503.09s-6.65-7.28-1.56-12.84a3.19,3.19,0,0,1,2.14-1.11c1.29-.06,3.14.73,4.44,5a3.7,3.7,0,0,0,.73,1.35,10,10,0,0,0,6.92,3.28s10.86,1.09,9.05,7.8c0,0-1.77,6.36-9.05,3.63,0,0-5.44,6.74-12.57,4.9a3.59,3.59,0,0,1-1.38-6.24l.13-.11S270.63,505.81,266.58,503.09Z" fill="#e33994"/>
<path d="M273.88,489.65s-2.14-3.67-.45-6.58a1.4,1.4,0,0,1,1.35-.69c1.25.13,3.39,1.19,3.56,6.76,0,0,3.17-1.56,5.13-.41a1.57,1.57,0,0,1,.47,2.27,5.13,5.13,0,0,1-3,1.65s.11,4.69-3.87,3.16C277.05,495.81,274.81,495.06,273.88,489.65Z" fill="#ef3648"/>
<path d="M377.7,250.73,375.27,282a7.64,7.64,0,0,1-4-2.91,5.33,5.33,0,0,0-6-1.89c-5.83,2-5.83-2-5.83-2-1.41-6.33,5.33-4.23,5.33-4.23,3.49.15,5.6-2.58,6.73-4.79a9.73,9.73,0,0,0,1-4.57C372.3,252.77,377.55,251.81,377.7,250.73Z" fill="#12ae4b"/>
<path d="M392.52,161.26s-11.22-5.76-5.88-14.06a5.61,5.61,0,0,1,2.43-2.15c1.81-.77,4.72-.76,7.36,4.81,0,0,1.37,2.73,4.36.43a5.68,5.68,0,0,1,2.87-1.23c1.5-.16,3.37.11,3.78,2.3a4.38,4.38,0,0,1-.35,2.57A9.5,9.5,0,0,1,403,158.4s-1.74,1.33.61,3.58c0,0,7.52,8.13.54,11.36a9,9,0,0,1-3.51.77c-3.17.1-10.05-.13-9.36-4.11a3.66,3.66,0,0,1,1-1.89C393.49,166.9,395.89,163.79,392.52,161.26Z" fill="#f58428"/>
<path d="M512.23,166.62a4.12,4.12,0,0,1-4.35,3.87c-2.63-.13-6.26.3-6.64,3.64,0,0-1,1.63,3.06,4.89,0,0,3.88,2.46-.61,7.15A12.9,12.9,0,0,1,491,192.29s-3.68-1.63-4.5,3.07c0,0-1.78,6.76-6.67,7.82a5,5,0,0,0-3.1,1.9c-.77,1.11-1.2,2.75.05,4.95a8.6,8.6,0,0,0,2.54,2.73c2.17,1.54,6.9,5.45,2.35,7.39a7.8,7.8,0,0,1-2.66.55c-2.22.09-7.6.68-9.05,4.06,0,0-.53,3.24-7.51,4a4.89,4.89,0,0,0-2.42,1,11.78,11.78,0,0,1-7.45,2.45,11.38,11.38,0,0,1-9.37-5.5c-1.9-3-4.94-6.56-7.75-4.13a8.51,8.51,0,0,1-2.09.61,6.19,6.19,0,0,1-5.07-1.21,5.73,5.73,0,0,1-1.62-2.42c-.53-1.37-2.29-4-8-2.91,0,0-12.38,1.72-11.75-7.27a3.82,3.82,0,0,0-2.12-3.77c-2.83-1.34-6.81-3.91-5.73-7.54,0,0,.37-.86,2.35-1.34a3.16,3.16,0,0,0,2-4.58l-.23-.41s-3.47-6.32,1.84-8.57c0,0,5.71-.45,4.89-5.54,0,0-4.07-4.47,2.25-5.08,0,0,8.58-3.27,4.7-9,0,0-7.15-3.27-2-8a13.35,13.35,0,0,1,8.17-2,7.39,7.39,0,0,0,2.9-.54,4,4,0,0,0,2.4-2.53s1.83-2.62-2.14-4.44a9.07,9.07,0,0,1-2.63-1.83c-1.42-1.42-2.54-3.6.61-5.55a14,14,0,0,1,9.9-3.1s4,1.24,6.35-2.16c0,0,7-6.76,15.06-6.16A4.84,4.84,0,0,0,460,125a4.1,4.1,0,0,1,4.71-1.87s2.92-1.2,4.95,5.64a5.09,5.09,0,0,0,4.31,3.69,4.7,4.7,0,0,0,1.48-.09,4.84,4.84,0,0,0,3.1-2.42c1.36-2.42,5.32-7.74,11.59-2.12l4.35,3.54s5.44,1.9,3,7.9a4.65,4.65,0,0,0,2,5.58s8,5.44,0,10.34c0,0-2.58,1.9-5.16-1.35a5.4,5.4,0,0,0-7.23,1.9s-1.27,1.87-4.75,2a4.33,4.33,0,0,0-3.22,1.55c-1.25,1.52-3.44,3.59-6.32,3.92,0,0-5.1,3.55-.81,6.81,0,0,6.33,6.12,12.86.81,0,0,14.3-14.7,25.73-7.75a6.53,6.53,0,0,1,1,1.3A3.84,3.84,0,0,1,512.23,166.62Z" fill="#f58428"/>
<path d="M423.12,163.79a2.53,2.53,0,0,1,1.44,1.79c.38,2.29-2.73,3.85-2.73,3.85-3.66,2.65-.83,6.73-.83,6.73,3.26,4.09-3.68,8.38-10.53,10-.34.08-.66.17-1,.26-5.52,1.74-2,5-2,5,4.61,6.69,2.45,7.15,2.45,7.15-.61,2.24-8.46-2-8.46-2a3.16,3.16,0,0,0,2-4.58l-.23-.41s-3.47-6.32,1.84-8.57c0,0,5.71-.45,4.89-5.54,0,0-4.07-4.47,2.25-5.08,0,0,8.58-3.27,4.7-9,0,0-7.15-3.27-2-8a13.35,13.35,0,0,1,8.17-2,7.39,7.39,0,0,0,2.9-.54c2.9,3.3-1.36,4-3.65,4.18a3,3,0,0,0-2.65,1.86C418.79,161.36,421.7,163.1,423.12,163.79Z" opacity="0.2"/>
<path d="M499.53,155.2c1.15-8.51-7.69-9.66-7.69-9.66-3.93-1.6-2.25-5.19-1-7.1a3.36,3.36,0,0,0-.36-4.32,3.92,3.92,0,0,0-3.58-.63c-8.77,1.47-8.38-3.53-8.38-3.53,1.36-2.42,5.32-7.74,11.59-2.12l4.35,3.54s5.44,1.9,3,7.9a4.65,4.65,0,0,0,2,5.58S507.56,150.3,499.53,155.2Z" opacity="0.2"/>
<path d="M512.23,166.62a11.92,11.92,0,0,1-5.48-1.48c-8-3.27-18,8.16-18,8.16-3.67,6.75-7.75,7.15-7.75,7.15-6.13,1.64-9-10.41-9-10.41s6.33,6.12,12.86.81c0,0,14.3-14.7,25.73-7.75a6.53,6.53,0,0,1,1,1.3A3.84,3.84,0,0,1,512.23,166.62Z" opacity="0.2"/>
<path d="M444.93,168.24c.68-1.05,1.3-2.69-1.48-2.69,0,0-6.73,1.44-3.88,8.58,0,0,.15,2.43,3.08,5.07a6.71,6.71,0,0,1,2.27,6.28,6.39,6.39,0,0,1-4.33,4.77s-13,3.92-8.07,12.41a4.44,4.44,0,0,0,4.63,2.27c1.71-.35,3.52-1.78,4-6.09a7.36,7.36,0,0,1,1.72-4.16,6.62,6.62,0,0,1,5.32-2.38S458.24,192,457,186a5.86,5.86,0,0,0-1.8-3c-1.81-1.69-5.43-5.64-3.56-8.77,0,0,1.15-1.73.09-3a2.24,2.24,0,0,0-2.91-.36c-1.06.67-2.75,1.41-3.77.24A2.29,2.29,0,0,1,444.93,168.24Z" opacity="0.2"/>
<path d="M479,220.7c-2.22.09-7.6.68-9.05,4.06,0,0-.53,3.24-7.51,4a4.89,4.89,0,0,0-2.42,1,11.78,11.78,0,0,1-7.45,2.45,11.38,11.38,0,0,1-9.37-5.5c-1.9-3-4.94-6.56-7.75-4.13a8.51,8.51,0,0,1-2.09.61s.58-5.67,8.06-2.56a18.5,18.5,0,0,1,6.16,4.33c2.41,2.51,7.21,6.16,10.74.27,0,0,.16-3.09,6-2.74a7.28,7.28,0,0,0,4.16-1C470.82,220.09,475,218.38,479,220.7Z" opacity="0.2"/>
<path d="M419,110s-.41-10,8-5.72c0,0,1.43,2.25,4.7,0a10.61,10.61,0,0,1,5.18-.72c4.66.76,4,7.74-.7,7.77h-.17a8.5,8.5,0,0,0-4.48,1.21c-1.38.84-2.46,2.07-1.31,3.6,0,0,2.74,2.22.79,6a4.75,4.75,0,0,1-7.81,1L423,123s-3-1.93-5.63-.72a9.3,9.3,0,0,1-3.52.93c-2.75.09-6.8-.33-6.38-3.6,0,0-.61-6.5,7.56-5.29C415.07,114.32,420,114.3,419,110Z" fill="#f58428"/>
<path d="M495.93,103.22s-1.64,8.22-12,5.37c0,0-1.84-1.23-4.5-3.07,0,0-3.87-1.25-4.26,2.67a6.48,6.48,0,0,1-.65,2.34,12.16,12.16,0,0,1-3.32,4c-3,2.22-7.88,2.84-15.05-4.32,0,0-9.19-7.35,1-11.24a10.21,10.21,0,0,0,1-.47,8.45,8.45,0,0,0,3.13-2.43c.68-1.07.57-2.35-1.66-3.63,0,0-3.28-1.44-4-4.43a11.54,11.54,0,0,0-5.07-7.33,11,11,0,0,0-1.82-.89,10.19,10.19,0,0,0-1.58-.42s-8.54-1.45-7.29-6.51a5.22,5.22,0,0,1,2.15-3c2.57-1.82,8.82-5.54,13.18-2.56a6.16,6.16,0,0,0,2.92,1.14c1.54.13,3.54,0,4.37-1.57,0,0,1.52-2.34-.82-6.74,0,0-7.36-7.35,3.67-10.61,0,0,12.46-5.72,9.39,6.32,0,0-5.92,7.35,9.6,7.56,0,0,8.57,0,8.78,5.11,0,0,1.63,2-5.31,8.57,0,0-3.47,1.83-.82,5.51,0,0,4.09,2.66,3.06,12.25,0,0-.88,2.25,3.23,2.25C493.23,97.15,495.72,96.65,495.93,103.22Z" fill="#f58428"/>
<path d="M471.16,114.53h0c-3,2.22-7.88,2.84-15.05-4.32,0,0-9.19-7.35,1-11.24a10.21,10.21,0,0,0,1-.47h0a5.26,5.26,0,0,0-2,3.08,6.09,6.09,0,0,0,1.35,5.26C461.43,111.61,471.16,114.53,471.16,114.53Z" opacity="0.2"/>
<path d="M461.25,96.08c.68-1.07.57-2.35-1.66-3.63,0,0-3.28-1.44-4-4.43a11.54,11.54,0,0,0-5.07-7.33,11,11,0,0,0-1.82-.89c.22-.2,4.21-3.62,13,5.71C461.73,85.51,474.14,90.52,461.25,96.08Z" opacity="0.2"/>
<path d="M308.76,302.36h0a12.44,12.44,0,0,1-5.66,4.32c-7.28,2.67-16.22-2.38-22.77-11.88h0a50,50,0,0,1-5.74-11.18c-6-16.32-2.9-32.45,6.86-36S304,254.34,310,270.67C314.56,283.21,313.81,295.66,308.76,302.36Z" fill="#f9b499"/>
<path d="M295.21,255.72s-27.64,3.72-20.63,27.91l-8.13,5.23s-12.43-15.35-3.54-26.6c0,0-3.81-1.27-5.62,1.27,0,0,0-5.08,6.89-3.62,0,0-6.17-2.37-5.08-6.36a5.5,5.5,0,0,0,5.63,1.63s.42-7.65,9.65-10.9a24.36,24.36,0,0,1,4.5-1.08s5.57-1,8.21-4.39a5.77,5.77,0,0,0,.69-1.05s9.07-11.25,15.43-2.18C303.21,235.58,311.37,251.19,295.21,255.72Z" fill="#2b1518"/>
<path d="M274.38,295s2.93,3.24,6.14,2.24l-.2-2.43s-1.45-2.09-2.32-3.73A5.72,5.72,0,0,1,274.38,295Z" fill="#2b1518"/>
<path d="M308.58,267.25s-4.51,2.57,1.2,9c0,0-4.28,7.22,3.24,8.72A53.32,53.32,0,0,0,308.58,267.25Z" fill="#e33994"/>
<path d="M291,295.82s-6.31-3.82-3.77-5.86a2.79,2.79,0,0,1,2.36-1.11s2.5-3.28,3.72,0l1.23,6.42s2.18,1.5,0,2.86C294.54,298.13,290.45,300.17,291,295.82Z" fill="#f58428"/>
<path d="M282.83,243.14c-4.08,5.85-8.45,1.15-8.45,1.15h0a24.36,24.36,0,0,1,4.5-1.08s5.57-1,8.21-4.39C290.4,243.19,282.83,243.14,282.83,243.14Z" fill="#ef3648"/>
<ellipse cx="272.22" cy="288.85" rx="5.46" ry="6.63" transform="translate(-116.49 208.56) rotate(-35.03)" fill="#f9b499"/>
<path d="M269.35,427.85s8.85,6,16.47,7.26a9.26,9.26,0,0,0,10.35-6.37c1.22-3.88,1.8-9.28-3.89-10.14,0,0,6-2.71-14.76-11.71C277.52,406.89,279.25,416.47,269.35,427.85Z" fill="#f9b499"/>
<path d="M247,390.83s54.59-36.48,36.55-67.79c0,0-11.78-11.71-20.21-6.53,0,0-24.51,19.87-49,55.26,0,0-16.61,23.41,0,34.58,0,0,35.12,17.42,55,21.5,0,0,9.53-10.34,8.17-21Z" fill="#f58428"/>
<path d="M247,390.83s54.59-36.48,36.55-67.79c0,0-11.78-11.71-20.21-6.53,0,0-24.51,19.87-49,55.26,0,0-16.61,23.41,0,34.58,0,0,35.12,17.42,55,21.5,0,0,9.53-10.34,8.17-21Z" opacity="0.2"/>
<path d="M228.25,353.2a13.31,13.31,0,0,1,2.25,9s1,11.48,14.3,4.63c0,0,7.25-6-1-9.66,0,0-4.43-2.82-1.21-8.86,0,0,1.41-2.62,9.27-1.41,0,0,6-.2,5.44-5.24,0,0-1.61-6.36-8.69-4.51a2.68,2.68,0,0,1-3.32-3.32.42.42,0,0,0,0-.1A229.26,229.26,0,0,0,228.25,353.2Z" fill="#fcac19"/>
<path d="M292.28,418.6a10.71,10.71,0,0,1-2.94-.17,14,14,0,0,1-2.84-.81,12.46,12.46,0,0,1-2.61-1.42,8.65,8.65,0,0,1-2.12-2.06c.87.49,1.67,1,2.52,1.4s1.7.82,2.58,1.15C288.62,417.41,290.41,418,292.28,418.6Z" fill="#f7a48b"/>
<path d="M296.83,425.93a7.76,7.76,0,0,1-4.37.48,17.47,17.47,0,0,1-4.29-1.11c-.69-.26-1.36-.58-2-.88s-1.31-.67-1.93-1.06-1.24-.77-1.84-1.19-1.18-.87-1.74-1.35c1.34.61,2.64,1.24,3.94,1.85s2.62,1.2,4,1.7a29,29,0,0,0,4.06,1.28A10.81,10.81,0,0,0,296.83,425.93Z" fill="#f7a48b"/>
<path d="M294.87,431.35a29.92,29.92,0,0,1-8.28-2.4,29,29,0,0,1-7.34-4.51l3.87,1.84c1.28.6,2.57,1.2,3.87,1.76C289.58,429.19,292.21,430.24,294.87,431.35Z" fill="#f7a48b"/>
<path d="M289.59,435a18.54,18.54,0,0,1-3.49-.76,28.61,28.61,0,0,1-3.34-1.26,22.9,22.9,0,0,1-6-3.82c1.11.45,2.16,1,3.23,1.45l3.19,1.46C285.3,433,287.44,433.91,289.59,435Z" fill="#f7a48b"/>
<ellipse cx="601.82" cy="279.1" rx="6.18" ry="3.45" transform="matrix(0.38, -0.93, 0.93, 0.38, 116.74, 731.62)" fill="#f9b499"/>
<path d="M634.1,346.09s8.84,56.51-6.88,57.13c0,0-31.24-.21-54.32-5.52,0,0-24.4,1.44-33.17-8.81a1.05,1.05,0,0,1,1-1.7c4.31.82,12.88,2.28,16,1.53,0,0-8.16-2.25-6.73-4.9,0,0,2.45-.57,8,2a38.87,38.87,0,0,0,16,1.31l41.45-3.45S610.33,360.56,608,354C608,354,628.53,351.84,634.1,346.09Z" fill="#f9b499"/>
<path d="M581.09,386.49l25.1-2.08s-4.9,8.8-14.3,3.49a3.94,3.94,0,0,0-5.1.21S583,391,581.09,386.49Z" fill="#ef3648"/>
<path d="M578.05,423.77a7.35,7.35,0,0,0-4.28-1.35c-2.3,0-5.3-.53-3.14-3.66,0,0,10.82-11,21.89-9.67A1.7,1.7,0,0,1,594,411a11.37,11.37,0,0,1-2.3,4.59,6.57,6.57,0,0,0-1.26,3.67c-.12,4-1.31,12.2-9.39,6.66Z" fill="#e33994"/>
<g opacity="0.2">
<path d="M606.19,348a90.62,90.62,0,0,1-3.2-9.27,88.43,88.43,0,0,1-2.28-9.55A100.72,100.72,0,0,1,606.19,348Z"/>
</g>
<path d="M310.78,649.5s-14.65-1.92-16.57-.72-6.25.72-8.41,1.92-2.4,2.65-5.76,2.41-4.32,1-6.72,1.2-5.77.24-4.56,1,6,.48,6,.48-.24,2.64,1,1.92,4.56-1.92,4.32-.72.24,2.88,1.68,2.64,1.2,1.68,4.08,1.68,7,.72,9.13.72,8.4,2.16,12,2.16,8.89.48,14.41.48,23.29,1,30.74,1.2,15.36-.24,19-.24,7.92.48,11,.48,1.2-2.4,7.21-1.68,7-.24,13.44-1,6.24-1.92,6.24-1.92.49-1.2,4.09-1.2,4.08.48,3.12-1-1-1.44,2.88-2.4,3.36-1.92,2.64-1.92,6.48-.72,7.2-.72-1.44-1-6-1-5.76-1.44-7.68-1.44,1.2,2.64-9.85-.24-16.32-3.61-29.77-3.85-39.62-.72-47.55-.24S310.78,649.5,310.78,649.5Z" fill="#e33994"/>
<path d="M441.64,647.34s-14.65-1.92-16.57-.72-6.24.72-8.4,1.92-2.4,2.65-5.76,2.41-4.33,1-6.73,1.2-5.76.24-4.56,1,6,.48,6,.48-.24,2.64,1,1.92,4.57-1.92,4.33-.72.24,2.88,1.68,2.64,1.2,1.68,4.08,1.68,7,.72,9.12.72,8.41,2.16,12,2.16,8.88.48,14.41.48,23.29,1,30.73,1.2,15.37-.24,19-.24,7.92.48,11.05.48,1.2-2.4,7.2-1.68,7-.24,13.45-1,6.24-1.92,6.24-1.92.48-1.2,4.08-1.2,4.08.48,3.12-1-1-1.44,2.88-2.4,3.37-1.92,2.65-1.92,6.48-.72,7.2-.72-1.44-1-6-1-5.77-1.45-7.69-1.45,1.2,2.65-9.84-.24-16.33-3.6-29.78-3.84-39.62-.72-47.54-.24S441.64,647.34,441.64,647.34Z" fill="#e1b425"/>
<path d="M389.42,628.61s-14.65-1.92-16.57-.72-6.25.72-8.41,1.92-2.4,2.65-5.76,2.41-4.32,1-6.72,1.2-5.77.24-4.57,1,6,.48,6,.48-.24,2.64,1,1.92,4.56-1.92,4.32-.72.24,2.88,1.68,2.64,1.2,1.68,4.08,1.68,7,.72,9.13.72,8.4,2.16,12,2.16,8.89.48,14.41.48,23.29,1,30.74,1.2,15.36-.24,19-.24,7.92.48,11,.48,1.2-2.4,7.2-1.68,7-.24,13.45-1,6.24-1.92,6.24-1.92.48-1.2,4.09-1.2,4.08.48,3.12-1-1-1.44,2.88-2.4,3.36-1.92,2.64-1.92,6.48-.72,7.2-.72-1.44-1-6-1-5.76-1.44-7.68-1.44,1.2,2.64-9.85-.24-16.33-3.61-29.77-3.85-39.62-.72-47.55-.24S389.42,628.61,389.42,628.61Z" fill="#34437d"/>
<path d="M391.22,619.3c25.5,1.72,84.07.34,86.82-6.55a1.32,1.32,0,0,0-.12-1.26s-4-6.43-5.39-7.12-.92-.69-1.84-2.07-3.67-2.52-7.58-4.59-2.52-1.15-5.28-3.68-13.09-6.66-15.39-8.95a13.74,13.74,0,0,0-5.28-3.68,29.19,29.19,0,0,1-4.59-2.75,8.75,8.75,0,0,1-2.3-3.91c-.46-1.61-6.2-2.53-7.69-3.9s-2.88.23-4.25.92a45.51,45.51,0,0,0-5.75,3c-2.06,1.38-1.37,3-3.9,3.91s-9.65,6.43-10.34,6.89-4.36,3.21-8.27,6.2-4.82,2.07-8,4.36a21.72,21.72,0,0,1-8,3.91,40.62,40.62,0,0,0-10.11,4.36,39.65,39.65,0,0,0-5.05,4.59l-.9,1.48C359.13,613.9,379.88,618.53,391.22,619.3Z" fill="#ef3648"/>
<path d="M406.38,627.11c-14.55-1.24-38.13-5.91-47.26-9.34.73,1,1.91,2.46,3.14,3.92,2.2.9,5,1.16,6.91,1.74a130.3,130.3,0,0,0,17.92,2.76c6.2.46,26.18,3,32.84,3.22s27.57-1.84,36.52-3.22c6.68-1,16.42-2.56,20.95-3.28.34-.63.64-1.24.89-1.79C470.88,623.18,427.2,628.88,406.38,627.11Z" fill="#91491e"/>
<path d="M478.27,611.49h-.35a1.32,1.32,0,0,1,.12,1.26c-2.75,6.89-61.32,8.27-86.82,6.55-12.33-.83-35.78-6.24-33.13-9.74-1.29,1.13-3.73,3.66-2.7,6.07,1.38,3.21,33.05,10,51,11.48,21.59,1.84,67.76-4.36,72.58-6.2S482.41,611.49,478.27,611.49Z" fill="#b77944"/>
<path d="M421.2,627.22c2.06-2.75-3.1-.68-7.24-.68s-23.25-2.07-26.87-2.93-5-1.55-5.17-2.07-3.27-.69-3.79-1.9,1.38-.68,7.58.18,26.7,1.89,31.52,1.89c3.46,0,3.73-.79,2.47-1.75-10.83.08-21.06-.16-28.48-.66-12.33-.83-35.78-6.24-33.13-9.74-1.29,1.13-3.73,3.66-2.7,6.07,1.38,3.21,33.05,10,51,11.48a136.88,136.88,0,0,0,14.69.26Z" fill="#a35f3a"/>
<path d="M406.38,627.11c-14.55-1.24-38.13-5.91-47.26-9.34,1.63,2.14,5.51,7.07,7.3,8,2.29,1.15,25.26,9.65,56.16,8.27,22.6-1,47.2-4.13,50.87-6.43,2.25-1.41,3.9-4.37,4.84-6.45C470.88,623.18,427.2,628.88,406.38,627.11Z" fill="#a96027"/>
<path d="M391.45,631.24c-3.67-2.29-6.2-2.29-5.28-3.67.4-.6,2.92-1.43,5.43-2.36-12.53-2-26.07-5-32.48-7.44,1.63,2.14,5.51,7.07,7.3,8,1.53.77,12.25,4.8,28.37,7A11.42,11.42,0,0,1,391.45,631.24Z" fill="#94491f"/>
<path d="M399.26,633.08c-.72-.08-1.45-.05-2.24-.07,1.21.15,2.46.28,3.73.41A10.27,10.27,0,0,0,399.26,633.08Z" fill="#94491f"/>
<path d="M417.18,575.66a18.42,18.42,0,0,0,2.64-4.83c-.5.31-1,.68-1.49.93a45.51,45.51,0,0,0-5.75,3c-2.06,1.38-1.37,3-3.9,3.91s-9.65,6.43-10.34,6.89-4.36,3.21-8.27,6.2-4.82,2.07-8,4.36a21.72,21.72,0,0,1-8,3.91,40.62,40.62,0,0,0-10.11,4.36,39.65,39.65,0,0,0-5.05,4.59l-.9,1.48c1.06,3.07,17.5,7.06,29.12,8.46l1.18-2.13s1.15-2.75,2.06-4.59,2.53-5.51,4.14-8.5,2.53-3.44,5.05-7.58,7.12-6.43,9.19-11S413.73,580.25,417.18,575.66Z" fill="#fff" opacity="0.2"/>
<g opacity="0.2">
<path d="M387.05,618.9c-1.19-.15-2.44-.32-3.72-.51h0C384.61,618.58,385.86,618.75,387.05,618.9Z"/>
<path d="M406.58,579.74l-1,.63Z"/>
<path d="M405.57,580.38l-.53.35Z"/>
<path d="M423.11,619.92c0-2.86-.61-5.65-.53-7,.11-2.07,1.49-10.11,1.72-14.93s.46-8,.46-11-.92-11.71-.92-13.55v-1.77a4.91,4.91,0,0,1-1.26-.75c-1.25-1.15-2.42-.22-3.57.52l.81-.53a18.42,18.42,0,0,1-2.64,4.83c-3.45,4.59-6.43,4.82-8.5,9.42s-6.66,6.89-9.19,11-3.44,4.6-5.05,7.58-3.22,6.66-4.14,8.5-2.06,4.59-2.06,4.59l-1.18,2.13c1.48.18,2.88.31,4.16.4C399.42,619.85,411,620.09,423.11,619.92Z"/>
<path d="M418.77,571.51l-.11.06Z"/>
<path d="M408.37,578.77l.31-.12Z"/>
<path d="M407,579.47l-.39.23Z"/>
<path d="M408.28,578.81l-.26.13Z"/>
<path d="M407.92,579c-.25.12-.52.27-.8.43C407.4,579.26,407.67,579.11,407.92,579Z"/>
</g>
<path d="M445.34,644.22c25.5,1.72,84.07.34,86.82-6.55a1.29,1.29,0,0,0-.13-1.26s-4-6.43-5.38-7.12-.92-.69-1.84-2.07-3.67-2.53-7.58-4.59-2.52-1.15-5.28-3.68-13.09-6.66-15.39-9a14,14,0,0,0-5.28-3.67,29.26,29.26,0,0,1-4.6-2.76,8.7,8.7,0,0,1-2.29-3.9c-.46-1.61-6.2-2.53-7.7-3.91s-2.87.23-4.25.92a47.87,47.87,0,0,0-5.74,3c-2.07,1.38-1.38,3-3.9,3.9s-9.65,6.43-10.34,6.89-4.36,3.22-8.27,6.21-4.82,2.06-8,4.36a21.39,21.39,0,0,1-8,3.9,40.55,40.55,0,0,0-10.1,4.37,40.05,40.05,0,0,0-5.06,4.59l-.89,1.47C413.25,638.82,434,643.45,445.34,644.22Z" fill="#e1b425"/>
<path d="M460.5,652c-14.55-1.24-38.13-5.91-47.26-9.34.73.95,1.9,2.46,3.14,3.92,2.2.9,5,1.16,6.91,1.74a130,130,0,0,0,17.92,2.76c6.2.46,26.18,3,32.84,3.21s27.56-1.83,36.52-3.21c6.68-1,16.42-2.57,20.94-3.28.35-.63.65-1.24.9-1.79C525,648.09,481.32,653.8,460.5,652Z" fill="#91491e"/>
<path d="M532.39,636.41H532a1.29,1.29,0,0,1,.13,1.26c-2.75,6.89-61.32,8.27-86.82,6.55-12.34-.84-35.78-6.24-33.13-9.74-1.29,1.12-3.73,3.66-2.7,6.06,1.38,3.22,33,10,51,11.49,21.59,1.83,67.76-4.37,72.58-6.2S536.53,636.41,532.39,636.41Z" fill="#b77944"/>
<path d="M475.31,652.14c2.07-2.75-3.1-.69-7.23-.69s-23.26-2.06-26.87-2.93-5-1.55-5.17-2.06-3.28-.69-3.79-1.9,1.38-.69,7.58.17,26.7,1.9,31.52,1.9c3.46,0,3.73-.8,2.46-1.76-10.83.09-21.05-.15-28.47-.65-12.34-.84-35.78-6.24-33.13-9.74-1.29,1.12-3.73,3.66-2.7,6.06,1.38,3.22,33,10,51,11.49a134.3,134.3,0,0,0,14.68.25A.57.57,0,0,0,475.31,652.14Z" fill="#a35f3a"/>
<path d="M460.5,652c-14.55-1.24-38.13-5.91-47.26-9.34,1.63,2.14,5.51,7.07,7.29,8,2.3,1.15,25.27,9.65,56.16,8.27,22.6-1,47.2-4.14,50.88-6.43,2.25-1.41,3.9-4.37,4.84-6.45C525,648.09,481.32,653.8,460.5,652Z" fill="#a96027"/>
<path d="M445.57,656.16c-3.68-2.3-6.2-2.3-5.28-3.67.4-.61,2.92-1.43,5.43-2.36-12.54-2-26.07-5-32.48-7.44,1.63,2.14,5.51,7.07,7.29,8,1.54.76,12.25,4.8,28.38,7A11.42,11.42,0,0,1,445.57,656.16Z" fill="#94491f"/>
<path d="M453.38,658c-.73-.08-1.45,0-2.24-.07,1.21.14,2.45.28,3.72.4A11.38,11.38,0,0,0,453.38,658Z" fill="#94491f"/>
<path d="M471.29,600.58a18.81,18.81,0,0,0,2.65-4.83c-.5.31-1,.67-1.5.92a47.87,47.87,0,0,0-5.74,3c-2.07,1.38-1.38,3-3.9,3.9s-9.65,6.43-10.34,6.89-4.36,3.22-8.27,6.21-4.82,2.06-8,4.36a21.39,21.39,0,0,1-8,3.9,40.55,40.55,0,0,0-10.1,4.37,40.05,40.05,0,0,0-5.06,4.59l-.89,1.47c1.05,3.08,17.49,7.07,29.11,8.47l1.18-2.13s1.15-2.76,2.07-4.59,2.53-5.52,4.14-8.5,2.52-3.45,5.05-7.58,7.12-6.43,9.19-11S467.85,605.17,471.29,600.58Z" fill="#fff" opacity="0.2"/>
<g opacity="0.2">
<path d="M441.17,643.82c-1.2-.15-2.45-.32-3.73-.52h0C438.72,643.5,440,643.67,441.17,643.82Z"/>
<path d="M460.7,604.66l-1,.63Z"/>
<path d="M459.69,605.3l-.53.35Z"/>
<path d="M477.23,644.84c0-2.87-.62-5.65-.54-7.05.12-2.07,1.5-10.11,1.73-14.93s.45-8,.45-11-.91-11.71-.91-13.55V596.5a4.47,4.47,0,0,1-1.27-.75c-1.24-1.15-2.41-.22-3.56.52l.81-.52a18.81,18.81,0,0,1-2.65,4.83c-3.44,4.59-6.43,4.82-8.49,9.41s-6.66,6.9-9.19,11-3.45,4.59-5.05,7.58-3.22,6.66-4.14,8.5-2.07,4.59-2.07,4.59l-1.18,2.13c1.48.17,2.89.31,4.17.4C453.54,644.77,465.15,645,477.23,644.84Z"/>
<path d="M472.88,596.43l-.1.06Z"/>
<path d="M462.49,603.69l.31-.13Z"/>
<path d="M461.15,604.39l-.38.23Z"/>
<path d="M462.39,603.73l-.25.12Z"/>
<path d="M462,603.9l-.8.44Z"/>
</g>
<path d="M329,644.22c25.5,1.72,84.07.34,86.82-6.55a1.29,1.29,0,0,0-.13-1.26s-4-6.43-5.38-7.12-.92-.69-1.84-2.07-3.67-2.53-7.58-4.59-2.52-1.15-5.28-3.68-13.09-6.66-15.39-9a13.88,13.88,0,0,0-5.28-3.67,29.26,29.26,0,0,1-4.6-2.76,8.79,8.79,0,0,1-2.29-3.9c-.46-1.61-6.2-2.53-7.7-3.91s-2.87.23-4.25.92a47.87,47.87,0,0,0-5.74,3c-2.07,1.38-1.38,3-3.9,3.9s-9.65,6.43-10.34,6.89-4.36,3.22-8.27,6.21-4.82,2.06-8,4.36a21.39,21.39,0,0,1-8,3.9,40.71,40.71,0,0,0-10.1,4.37,39.65,39.65,0,0,0-5.05,4.59l-.9,1.47C296.91,638.82,317.65,643.45,329,644.22Z" fill="#e33994"/>
<path d="M344.16,652c-14.55-1.24-38.13-5.91-47.26-9.34.73.95,1.9,2.46,3.14,3.92,2.2.9,5,1.16,6.91,1.74a130.3,130.3,0,0,0,17.92,2.76c6.2.46,26.18,3,32.84,3.21s27.56-1.83,36.52-3.21c6.68-1,16.42-2.57,20.95-3.28.34-.63.64-1.24.89-1.79C408.66,648.09,365,653.8,344.16,652Z" fill="#91491e"/>
<path d="M416.05,636.41h-.36a1.29,1.29,0,0,1,.13,1.26c-2.75,6.89-61.32,8.27-86.82,6.55-12.33-.84-35.78-6.24-33.13-9.74-1.29,1.12-3.73,3.66-2.7,6.06,1.38,3.22,33.05,10,51,11.49,21.59,1.83,67.76-4.37,72.58-6.2S420.19,636.41,416.05,636.41Z" fill="#b77944"/>
<path d="M359,652.14c2.06-2.75-3.11-.69-7.24-.69s-23.26-2.06-26.87-2.93-5-1.55-5.17-2.06-3.27-.69-3.79-1.9,1.38-.69,7.58.17,26.7,1.9,31.52,1.9c3.46,0,3.73-.8,2.47-1.76-10.84.09-21.06-.15-28.48-.65-12.33-.84-35.78-6.24-33.13-9.74-1.29,1.12-3.73,3.66-2.7,6.06,1.38,3.22,33.05,10,51,11.49a134.35,134.35,0,0,0,14.68.25A.93.93,0,0,0,359,652.14Z" fill="#a35f3a"/>
<path d="M344.16,652c-14.55-1.24-38.13-5.91-47.26-9.34,1.63,2.14,5.51,7.07,7.3,8,2.29,1.15,25.26,9.65,56.15,8.27,22.61-1,47.2-4.14,50.88-6.43,2.25-1.41,3.9-4.37,4.84-6.45C408.66,648.09,365,653.8,344.16,652Z" fill="#a96027"/>
<path d="M329.23,656.16c-3.67-2.3-6.2-2.3-5.28-3.67.4-.61,2.92-1.43,5.43-2.36-12.53-2-26.07-5-32.48-7.44,1.63,2.14,5.51,7.07,7.3,8,1.53.76,12.24,4.8,28.37,7A11.42,11.42,0,0,1,329.23,656.16Z" fill="#94491f"/>
<path d="M337,658c-.72-.08-1.45,0-2.24-.07,1.21.14,2.45.28,3.72.4A11.38,11.38,0,0,0,337,658Z" fill="#94491f"/>
<path d="M355,600.58a18.73,18.73,0,0,0,2.64-4.83c-.5.31-1,.67-1.5.92a47.87,47.87,0,0,0-5.74,3c-2.07,1.38-1.38,3-3.9,3.9s-9.65,6.43-10.34,6.89-4.36,3.22-8.27,6.21-4.82,2.06-8,4.36a21.39,21.39,0,0,1-8,3.9,40.71,40.71,0,0,0-10.1,4.37,39.65,39.65,0,0,0-5.05,4.59l-.9,1.47c1,3.08,17.49,7.07,29.11,8.47l1.19-2.13s1.14-2.76,2.06-4.59,2.53-5.52,4.14-8.5,2.52-3.45,5-7.58,7.12-6.43,9.19-11S351.51,605.17,355,600.58Z" fill="#fff" opacity="0.2"/>
<g opacity="0.2">
<path d="M324.83,643.82c-1.2-.15-2.45-.32-3.73-.52h0C322.38,643.5,323.63,643.67,324.83,643.82Z"/>
<path d="M344.36,604.66l-1,.63Z"/>
<path d="M343.35,605.3l-.53.35Z"/>
<path d="M360.89,644.84c0-2.87-.61-5.65-.54-7.05.12-2.07,1.5-10.11,1.73-14.93s.46-8,.46-11-.92-11.71-.92-13.55V596.5a4.47,4.47,0,0,1-1.27-.75c-1.24-1.15-2.41-.22-3.56.52l.81-.52a18.73,18.73,0,0,1-2.64,4.83c-3.45,4.59-6.44,4.82-8.5,9.41s-6.66,6.9-9.19,11-3.45,4.59-5,7.58-3.22,6.66-4.14,8.5-2.06,4.59-2.06,4.59l-1.19,2.13c1.49.17,2.89.31,4.17.4C337.2,644.77,348.81,645,360.89,644.84Z"/>
<path d="M356.54,596.43l-.1.06Z"/>
<path d="M346.15,603.69l.31-.13Z"/>
<path d="M344.81,604.39l-.38.23Z"/>
<path d="M346.06,603.73l-.26.12Z"/>
<path d="M345.7,603.9l-.8.44Z"/>
</g>
</svg>